<?xml version="1.0" encoding="UTF-8"?>
<svg id="Layer_1" data-name="Layer 1" xmlns="http://www.w3.org/2000/svg" viewBox="0 0 2718.42 439.91">
  <defs>
    <style>
      .cls-1 {
        fill: #61bbf5;
      }

      .cls-2 {
        fill: #fff;
      }
    </style>
  </defs>
  <path class="cls-1" d="M401.03,0h-92.08c-21.45,0-38.88,17.43-38.88,38.88v92.08c0,2.28-1.87,4.08-4.08,4.08h-96.16V38.88c0-21.45-17.43-38.88-38.88-38.88H38.88C17.43,0,0,17.43,0,38.88v92.08c0,21.45,17.43,38.88,38.88,38.88h227.12c21.45,0,38.88-17.43,38.88-38.88V38.88c0-2.28,1.87-4.08,4.08-4.08h92.08c2.28,0,4.08,1.87,4.08,4.08v362.15c0,2.28-1.87,4.08-4.08,4.08h-92.08c-2.28,0-4.08-1.87-4.08-4.08v-92.08c0-21.45-17.43-38.88-38.88-38.88h-96.16v-73.61l-34.73-13.21v86.75H38.88c-21.45.07-38.88,17.5-38.88,38.95v92.08c0,21.45,17.43,38.88,38.88,38.88h92.08c21.45,0,38.88-17.43,38.88-38.88v-69.46l-34.73-13.21v82.67c0,2.28-1.87,4.08-4.08,4.08H38.88c-2.28,0-4.08-1.87-4.08-4.08v-92.08c0-2.28,1.87-4.08,4.08-4.08h227.12c2.28,0,4.08,1.87,4.08,4.08v92.08c0,21.45,17.43,38.88,38.88,38.88h92.08c21.45,0,38.88-17.43,38.88-38.88V38.88c0-21.45-17.43-38.88-38.88-38.88ZM135.04,135.04H38.88c-2.28,0-4.08-1.87-4.08-4.08V38.88c0-2.28,1.87-4.08,4.08-4.08h92.08c2.28,0,4.08,1.87,4.08,4.08v96.16Z"/>
  <g>
    <path class="cls-2" d="M677.4,111.79h41.99v210.03h-41.99v-87.58h-97.2v87.58h-41.99V111.79h41.99v82.81h97.2v-82.81Z"/>
    <path class="cls-2" d="M746.03,322.72v-138.01h37.5v138.01h-37.5Z"/>
    <path class="cls-2" d="M911.99,184.71h37.5v139.19c0,41.09-30.58,71.39-75.61,71.39-30.02,0-52.78-14.74-63.3-33.9l28.78-21.03c5.67,10.52,19.51,18.61,34.52,18.61,23.73,0,38.12-15.29,38.12-35.07v-8.72c-11.69,7.19-25.53,10.79-38.67,10.79-41.37,0-72.91-33.62-72.91-72.29s31.48-72.29,72.91-72.29c13.21,0,26.98,3.6,38.67,10.79v-7.47ZM911.99,253.68c0-20.41-15.01-36.6-36.32-36.87-21.31.28-36.32,16.53-36.32,36.87s15.01,36.6,36.32,36.87c21.31-.28,36.32-16.19,36.32-36.87Z"/>
    <path class="cls-2" d="M976.12,322.72V112.69h37.5v81.01c6.3-6.02,17.99-12.31,34.52-12.31,31.48,0,54.58,23.38,54.58,53.68v87.58h-37.5v-79.83c0-15.01-8.72-26.98-25.53-26.98-15.01,0-26.08,11.69-26.08,29.12v77.69h-37.5v.07Z"/>
    <path class="cls-2" d="M1119.53,290.9l32.72-12.31c2.97,8.72,10.79,14.11,20.41,14.11,10.52,0,16.81-4.22,16.81-11.07s-5.67-10.79-16.19-12.59c-27.88-4.5-49.53-15.29-49.53-45.31,0-22.48,18.61-42.34,49.81-42.34,26.98,0,42.89,14.39,48.29,32.38l-31.48,10.52c-2.08-6.92-8.09-11.07-16.81-11.07s-13.77,4.5-13.77,10.17c0,6.92,5.67,10.17,16.19,12.04,36.32,5.67,50.43,21.03,50.43,44.41,0,25.53-18.89,46.21-54.31,46.21-30.3,0-46.83-16.53-52.51-35.07l-.07-.07Z"/>
    <path class="cls-2" d="M1394.44,253.68c0,38.67-31.48,72.29-72.91,72.29-13.49,0-26.98-3.87-39.02-11.07v77.13h-37.5v-207.33h37.5v7.82c12.04-7.19,25.53-11.07,39.02-11.07,41.44,0,72.91,33.62,72.91,72.29v-.07ZM1355.43,253.68c0-20.41-15.01-36.6-36.32-36.87-21.31.28-36.32,16.53-36.32,36.87s15.01,36.6,36.32,36.87c21.31-.28,36.32-16.19,36.32-36.87Z"/>
    <path class="cls-2" d="M1412.15,320.78v-135.94h35.07v16.19c7.47-12.31,22.48-18.33,38.12-18.33h10.52v35.7h-14.74c-20.68,0-32.1,12.94-32.1,33.62v68.69h-36.87v.07Z"/>
    <path class="cls-2" d="M1579.22,322.44v-138.01h35.7v11.07c5.67-6.57,17.99-14.39,36.32-14.39,31.48,0,54.58,23.38,54.58,53.68v87.58h-37.5v-79.83c0-15.01-8.72-26.98-25.53-26.98-15.01,0-26.08,11.07-26.08,28.5v78.31h-37.5v.07Z"/>
    <path class="cls-2" d="M1833.66,184.71h37.5v139.19c0,41.09-30.58,71.39-75.61,71.39-30.02,0-52.78-14.74-63.3-33.9l28.78-21.03c5.67,10.52,19.51,18.61,34.52,18.61,23.73,0,38.12-15.29,38.12-35.07v-8.72c-11.69,7.19-25.53,10.79-38.67,10.79-41.37,0-72.91-33.62-72.91-72.29s31.48-72.29,72.91-72.29c13.21,0,26.98,3.6,38.67,10.79v-7.47h0ZM1833.66,253.68c0-20.41-15.01-36.6-36.32-36.87-21.31.28-36.32,16.53-36.32,36.87s15.01,36.6,36.32,36.87c21.31-.28,36.32-16.19,36.32-36.87Z"/>
    <polygon class="cls-2" points="783.52 160.22 783.52 112.35 746.03 112.35 746.03 145.97 783.52 160.22"/>
    <g>
      <path class="cls-2" d="M1515.23,322.72v-138.01h37.5v138.01h-37.5Z"/>
      <polygon class="cls-2" points="1552.66 160.22 1552.66 112.35 1515.16 112.35 1515.16 145.97 1552.66 160.22"/>
    </g>
    <rect class="cls-2" x="1997.27" y=".72" width="7.7" height="439.19"/>
    <path class="cls-2" d="M2219.33,141.49h-28.15v152.74h28.15v28.45h-87.75v-28.45h28.15v-152.74h-28.15v-28.45h87.75v28.45Z"/>
    <path class="cls-2" d="M2245.82,322.68v-135.97h26.65v15.57c5.09-8.09,19.17-18.87,40.43-18.87,32.04,0,53.91,23.36,53.91,53.61v85.65h-28.45v-79.66c0-19.47-11.98-32.94-31.15-32.94s-32.94,13.78-32.94,35.64v76.97h-28.45Z"/>
    <path class="cls-2" d="M2499.27,113.04h28.45v209.64h-28.45v-12.58c-12.28,10.18-28.15,15.87-44.32,15.87-40.13,0-71.88-31.15-71.88-71.28s31.75-71.28,71.88-71.28c16.17,0,32.04,5.69,44.32,15.87v-86.25ZM2499.27,254.7c0-25.16-18.57-43.73-43.13-44.02-24.86.3-43.13,18.87-43.13,44.02s18.27,43.72,43.13,43.72,43.13-18.57,43.13-43.72Z"/>
    <path class="cls-2" d="M2598.93,281.65c0-23.96,19.17-39.23,45.52-39.23h31.15c8.69,0,14.08-5.09,14.08-12.58,0-8.98-9.88-20.66-30.55-20.66-18.27,0-29.05,9.88-34.44,22.76l-21.26-13.78c8.69-19.47,27.25-34.74,55.7-34.74,38.33,0,59.3,25.75,59.3,53.31v85.95h-26.35v-14.97c-5.09,7.79-19.47,18.27-40.73,18.27-32.04,0-52.41-19.77-52.41-44.32ZM2690.27,266.38v-1.8h-42.53c-11.38,0-19.17,7.49-19.17,17.37,0,10.78,8.98,19.47,25.16,19.47,22.76,0,36.54-14.67,36.54-35.04Z"/>
    <g>
      <rect class="cls-2" x="2554.22" y="186.71" width="28.45" height="135.97"/>
      <polygon class="cls-2" points="2582.67 112.69 2554.22 112.69 2554.22 147.97 2582.67 158.78 2582.67 112.69"/>
    </g>
  </g>
</svg>